<svg xmlns="http://www.w3.org/2000/svg" xmlns:xlink="http://www.w3.org/1999/xlink" version="1.1" id="Layer_1" x="0px" y="0px" viewBox="0 0 375.6 142" style="enable-background:new 0 0 375.6 142;" xml:space="preserve" width="375.6"  height="142" >
<style type="text/css">
	.st0{fill:#1A3E6F;}
</style>
<path class="st0" d="M23.3,112.8c-0.8-3.4-2.9-5.9-7-5.9c-6,0-8.5,5.6-8.5,11.4c0,5.7,2.5,11.4,8.5,11.4c4.3,0,6.7-3.5,7.1-7.8h4.8  C27.8,129,23.1,134,16.3,134C8,133.9,3,126.8,3,118.3s5-15.6,13.4-15.6c6.3,0,11.3,3.8,11.9,10.2L23.3,112.8L23.3,112.8z"/>
<path class="st0" d="M31.1,112.2h4.2v4.2h0.1c0.5-2.3,3.2-4.8,5.9-4.8c1,0,1.3,0.1,1.7,0.1v4.6c-0.6-0.1-1.3-0.2-1.9-0.2  c-3.1,0-5.5,2.6-5.5,7.4v10.3h-4.5C31.1,133.8,31.1,112.2,31.1,112.2z"/>
<path class="st0" d="M47.5,123.7c0,3.4,1.7,6.4,5.4,6.4c2.6,0,4.1-1.2,4.9-3.6H62c-1,4.7-4.7,7.4-9.2,7.4c-6.3,0-9.9-4.7-9.9-11.4  c0-6.1,3.8-11.4,9.8-11.4c6.4,0,10.3,6.1,9.5,12.6C62.2,123.7,47.5,123.7,47.5,123.7z M57.9,120.6c-0.2-3-2.1-5.7-5.1-5.7  c-3.1,0-5.2,2.5-5.3,5.7H57.9z"/>
<path class="st0" d="M83.7,133.7h-4.2v-2.9h-0.1c-1.2,2.5-3.7,3.5-6.3,3.5c-6.4,0-9.5-5.1-9.5-11.5c0-7.8,4.3-11.2,8.8-11.2  c2.5,0,5.4,1,6.7,3.4h0.1v-11h4.5V133.7z M73.7,130.5c4,0,5.7-3.9,5.7-7.7c0-4.8-2.2-7.6-5.6-7.6c-4.2,0-5.7,4-5.7,7.9  C68.1,126.9,69.9,130.5,73.7,130.5z"/>
<path class="st0" d="M87.7,103.9h4.5v4.5h-4.5V103.9z M87.7,112.2h4.5v21.6h-4.5V112.2z"/>
<path class="st0" d="M94,112h3.4v-6.5h4.5v6.5h4v3.6h-4v11.5c0,2,0.2,3,2.2,3c0.6,0,1.3,0,1.9-0.2v3.7c-1,0.1-1.9,0.3-2.9,0.3  c-4.7,0-5.5-1.9-5.6-5.5v-12.8H94V112z"/>
<path class="st0" d="M117.3,103.4h4.9v17.4c0,4,0.2,8.7,6.6,8.7c6.3,0,6.6-4.6,6.6-8.7v-17.4h4.9v19.1c0,7.7-4.6,11.5-11.5,11.5  c-6.9,0-11.5-3.8-11.5-11.5V103.4z"/>
<path class="st0" d="M143.9,112.2h4.2v3.2l0.1,0.1c1.3-2.4,3.6-3.8,6.3-3.8c4.4,0,7.2,2.5,7.2,7.4v14.8h-4.5v-13.6  c-0.1-3.4-1.3-4.9-4-4.9c-3,0-4.9,2.5-4.9,5.7v12.8h-4.5L143.9,112.2L143.9,112.2z"/>
<path class="st0" d="M165.5,104h4.5v4.5h-4.5V104z M165.5,112.2h4.5v21.6h-4.5V112.2z"/>
<path class="st0" d="M172.5,122.5c0-6.6,3.7-11.4,10.2-11.4s10.2,4.8,10.2,11.4c0,6.6-3.7,11.4-10.2,11.4S172.5,129.2,172.5,122.5z   M188.4,122.5c0-3.7-1.8-7.6-5.7-7.6s-5.8,3.9-5.8,7.6c0,3.8,1.8,7.7,5.8,7.7S188.4,126.3,188.4,122.5z"/>
<path class="st0" d="M195.2,112.2h4.2v3.2l0.1,0.1c1.3-2.4,3.6-3.8,6.3-3.8c4.4,0,7.2,2.5,7.2,7.4v14.8h-4.5v-13.6  c-0.1-3.4-1.3-4.9-4-4.9c-3,0-4.9,2.5-4.9,5.7v12.8h-4.5L195.2,112.2L195.2,112.2z"/>
<g>
	<g>
		<g>
			<path class="st0" d="M3.7,48h23.5v6.8H12.8v8.3h13.4v6.8H12.8v13.5H3.7V48z"/>
			<path class="st0" d="M29.6,48h25v6.8H38.7v7.4h14.9V69H38.7v7.6h16.2v6.9H29.6V48z"/>
			<path class="st0" d="M57.7,47.9h14c4,0,9.2,0.4,12.7,3c4.9,3.6,6.3,9.4,6.3,14.7c0,7.9-2.3,13.7-9.1,16.5     c-3.4,1.4-7.5,1.4-9.8,1.4H57.7V47.9z M67.1,76.6h4c6.1-0.1,10-2.9,10-11.1c0-10.8-7.6-10.8-10.4-10.8h-3.6V76.6z"/>
			<path class="st0" d="M92.9,48h25v6.8H102v7.4h15V69h-15v7.6h16.2v6.9H92.9V48z"/>
			<path class="st0" d="M120.7,47.9h15.4c6,0,8.2,0.4,10.2,2.6c1,1.1,2.3,3.1,2.3,6.9c0,3.9-1.5,5.6-3,6.6c-2.1,1.4-4.1,1.7-5.1,1.8     V66c6.4,0.2,6.8,3.2,7.6,8.7c0.3,2.4,0.8,6.3,1.6,8.8h-10c-0.6-2.2-0.8-4.9-1.1-8c-0.4-4.3-0.6-5.9-4.7-5.9H130v13.9h-9.3V47.9z      M129.9,63.1h3.5c2,0,3,0,3.8-0.3c2-0.7,2.4-2.9,2.4-4c0-4.4-3.6-4.4-6.3-4.4h-3.5v8.7H129.9z"/>
			<path class="st0" d="M163.4,47.9h11.2l13.1,35.5h-10.4l-2.3-7.1h-13.3l-2.3,7.1h-9.2L163.4,47.9z M172.9,69.7l-4.3-14.9h-0.1     l-4.6,14.9H172.9z"/>
			<path class="st0" d="M188.7,47.9h9.3v28.5h14.9v7h-24.3V47.9H188.7z"/>
		</g>
		<g>
			<path class="st0" d="M3.7,8.6h12.7l11.2,26.5L27.5,8.6h8.1v35.5H23.1L11.7,16.5l0.1,27.6H3.7V8.6z"/>
			<path class="st0" d="M51.2,8.6h11.2l13.1,35.5H65.1L62.8,37H49.5l-2.3,7.1H38L51.2,8.6z M60.7,30.4l-4.3-14.9h-0.1l-4.6,14.9     H60.7z"/>
			<path class="st0" d="M68.6,8.6h10.2l7.6,25.7l8-25.7h9.2L91.4,44.1h-11L68.6,8.6z"/>
			<path class="st0" d="M113.8,8.6l7.3,14.9l7.5-14.9h9.5l-13,23v12.5h-9.3v-13L103.1,8.6H113.8z"/>
		</g>
		<rect x="3.7" y="87.5" class="st0" width="209.3" height="9.3"/>
		<path class="st0" d="M189.3,24.5c0-10.8-8.3-19.7-18.9-20.6c-0.6-0.1-1.2-0.1-1.8-0.1s-1.2,0-1.7,0.1c-5.8,0.5-11.2,3.4-14.7,8.1    l0,0l-0.4,0.5l-0.4,0.5l0,0c-2.3,3.4-3.5,7.4-3.5,11.5c0,10.8,8.3,19.7,18.9,20.6c0.6,0.1,1.2,0.1,1.8,0.1s1.2,0,1.8-0.1    C181,44.2,189.3,35.3,189.3,24.5z M178.1,39.8h-2.9c0.8-1.6,1.5-3.6,2-5.8h4.8C181,36.2,179.7,38.2,178.1,39.8z M155.1,34h4.8    c0.5,2.2,1.2,4.1,2,5.8H159C157.5,38.2,156.1,36.2,155.1,34z M149.2,25.1h2.7c0.1,2.7,0.5,5.2,1.4,7.6H151    C149.9,30.4,149.3,27.8,149.2,25.1z M155.3,14.5c1-2.1,2.3-3.9,3.7-5.3h2.9c-0.6,1.3-1.2,2.7-1.7,4.3l0,0l-0.2,0.6l-0.2,0.6l0,0    c0,0.1,0,0.1,0,0.2H155C155.2,14.8,155.3,14.6,155.3,14.5z M182,14.9h-4.8c-0.5-2.2-1.2-4.1-2-5.8h2.9    C179.7,10.8,181,12.7,182,14.9z M188,23.8h-2.7c-0.1-2.7-0.5-5.2-1.4-7.6h2.2C187.2,18.6,187.9,21.1,188,23.8z M184,23.8h-5.7    c0-2.7-0.3-5.2-0.8-7.6h5.1C183.4,18.6,183.9,21.1,184,23.8z M161.4,14.5c0.5-2.1,1.2-3.8,2-5.3h4.5V15h-6.6    C161.3,14.8,161.4,14.6,161.4,14.5z M162.7,7.9h-2.1c1.1-0.9,2.4-1.6,3.7-2C163.7,6.4,163.2,7.1,162.7,7.9z M167.9,5.1v2.8h-3.6    C165.4,6.3,166.6,5.3,167.9,5.1z M169.2,7.9V5.1c1.3,0.2,2.5,1.2,3.6,2.8C172.8,7.9,169.2,7.9,169.2,7.9z M173.7,9.2    c0.9,1.6,1.6,3.5,2.2,5.8h-6.6V9.2H173.7z M167.9,16.3v7.6h-7.7c0-2.6,0.3-5.2,0.8-7.6H167.9z M167.9,25.1v7.6H161    c-0.5-2.3-0.8-4.9-0.8-7.6H167.9z M167.9,34v5.8h-4.4c-0.9-1.6-1.6-3.5-2.2-5.8H167.9z M167.9,41.1v2.8c-1.3-0.2-2.5-1.2-3.6-2.8    H167.9z M169.2,41.1h3.6c-1.1,1.5-2.3,2.5-3.6,2.8V41.1z M169.2,39.8V34h6.6c-0.6,2.2-1.3,4.2-2.2,5.8H169.2z M169.2,32.7v-7.6    h7.7c0,2.7-0.3,5.2-0.8,7.6H169.2z M169.2,23.8v-7.6h6.9c0.5,2.3,0.8,4.9,0.8,7.6H169.2z M174.4,7.9c-0.5-0.8-1-1.5-1.6-2.1    c1.3,0.5,2.6,1.2,3.7,2.1H174.4z M159.7,16.3c-0.5,2.4-0.7,4.9-0.8,7.6h-5.7c0.1-2.6,0.6-5.2,1.4-7.6H159.7z M151.9,23.8h-2.7    c0.1-2.6,0.7-5.2,1.8-7.6h2.2C152.4,18.6,151.9,21.2,151.9,23.8z M153.2,25.1h5.7c0,2.7,0.3,5.2,0.8,7.6h-5.1    C153.7,30.4,153.2,27.8,153.2,25.1z M162.7,41.1c0.5,0.8,1,1.5,1.6,2.1c-1.3-0.5-2.6-1.2-3.7-2.1H162.7z M174.4,41.1h2.1    c-1.2,0.9-2.4,1.6-3.7,2.1C173.4,42.6,173.9,41.9,174.4,41.1z M177.5,32.7c0.5-2.3,0.7-4.9,0.8-7.6h5.7c-0.1,2.7-0.6,5.3-1.4,7.6    H177.5z M185.3,25.1h2.7c-0.1,2.7-0.7,5.3-1.8,7.6H184C184.7,30.4,185.2,27.8,185.3,25.1z M185.5,14.9h-2    c-0.9-2.2-2.1-4.1-3.6-5.8h0.6C182.5,10.7,184.2,12.7,185.5,14.9z M178.6,7.9L178.6,7.9L178.6,7.9L178.6,7.9z M156.7,9.2h0.6    c-1.1,1.2-2,2.6-2.8,4.2l0,0l-0.3,0.6l-0.3,0.6l0,0c-0.1,0.1-0.1,0.3-0.2,0.4h-2c0.3-0.6,0.7-1.2,1.1-1.7    C153.9,11.7,155.2,10.3,156.7,9.2z M151.7,34h2c0.9,2.2,2.1,4.1,3.6,5.8h-0.6C154.7,38.2,153,36.2,151.7,34z M158.6,41.1    L158.6,41.1L158.6,41.1L158.6,41.1z M178.6,41.1L178.6,41.1L178.6,41.1L178.6,41.1z M180.5,39.8h-0.6c1.4-1.6,2.7-3.6,3.6-5.8h2    C184.2,36.2,182.5,38.2,180.5,39.8z"/>
	</g>
</g>
<g>
	<path class="st0" d="M220.3,86.7c2.7,0,4.9,2.2,4.9,5s-2.2,5-4.9,5s-5-2.2-5-5C215.4,88.9,217.6,86.7,220.3,86.7L220.3,86.7z    M220.3,87.5c-2.2,0-4,1.9-4,4.2c0,2.4,1.8,4.2,4,4.2s4-1.9,4-4.2C224.3,89.3,222.6,87.5,220.3,87.5L220.3,87.5z M219.4,94.6h-0.9   V89c0.5-0.1,0.9-0.1,1.6-0.1c0.8,0,1.4,0.2,1.7,0.4c0.3,0.2,0.5,0.6,0.5,1.2c0,0.7-0.5,1.2-1.1,1.4l0,0c0.5,0.1,0.8,0.5,0.9,1.4   c0.1,0.9,0.3,1.2,0.4,1.4h-0.9c-0.1-0.2-0.3-0.7-0.4-1.4c-0.1-0.7-0.5-1-1.2-1h-0.6V94.6z M219.4,91.5h0.6c0.7,0,1.4-0.3,1.4-1   c0-0.5-0.4-1-1.4-1c-0.3,0-0.5,0-0.6,0V91.5z"/>
</g>
<rect x="237.3" y="3.7" class="st0" width="1" height="135.6"/>
<g>
	<path class="st0" d="M256,8.5h2.2l4.6,10.9h-2.5l-1-2.4h-4.6l-1,2.4h-2.4L256,8.5z M258.5,14.9l-1.4-3.5l-1.4,3.5H258.5z"/>
	<path class="st0" d="M264.3,8.6h5c1.4,0,2.4,0.4,3.2,1.1c0.6,0.6,0.9,1.5,0.9,2.5l0,0c0,1.8-0.9,2.9-2.3,3.4l2.6,3.9h-2.8l-2.3-3.5   h-1.9v3.5h-2.4L264.3,8.6L264.3,8.6z M269.1,13.9c1.2,0,1.8-0.6,1.8-1.5l0,0c0-1-0.7-1.5-1.9-1.5h-2.4V14h2.5V13.9z"/>
	<path class="st0" d="M275.3,8.6h2.6l2.8,4.6l2.8-4.6h2.6v10.8h-2.4v-7.1l-3.1,4.6h-0.1l-3-4.6v7h-2.3V8.6H275.3z"/>
	<path class="st0" d="M291.6,15.2l-4.2-6.6h2.8l2.6,4.4l2.6-4.4h2.7l-4.2,6.5v4.3h-2.4v-4.2H291.6z"/>
</g>
<g>
	<path class="st0" d="M252.3,27.5h2.6l2.8,4.6l2.8-4.6h2.6v10.8h-2.4v-7.1l-3.1,4.6h-0.1l-3-4.6v7h-2.3V27.5H252.3z"/>
	<path class="st0" d="M269.3,27.5h2.2l4.6,10.9h-2.5l-1-2.4H268l-1,2.4h-2.4L269.3,27.5z M271.8,33.8l-1.4-3.5l-1.4,3.5H271.8z"/>
	<path class="st0" d="M277.6,27.5h5c1.4,0,2.4,0.4,3.2,1.1c0.6,0.6,0.9,1.5,0.9,2.5l0,0c0,1.8-0.9,2.9-2.3,3.4l2.6,3.9h-2.8   l-2.3-3.5H280v3.5h-2.4V27.5z M282.4,32.8c1.2,0,1.8-0.6,1.8-1.5l0,0c0-1-0.7-1.5-1.9-1.5H280v3.1L282.4,32.8L282.4,32.8z"/>
	<path class="st0" d="M288.7,27.5h2.4v10.8h-2.4V27.5z"/>
	<path class="st0" d="M293.5,27.5h2.2l5.1,6.7v-6.7h2.4v10.8h-2l-5.2-6.9v6.9h-2.4V27.5H293.5z"/>
	<path class="st0" d="M305.6,27.5h8.2v2.1H308v2.3h5.1V34H308v2.3h5.9v2.1h-8.3L305.6,27.5L305.6,27.5z"/>
	<path class="st0" d="M319.7,33L319.7,33c0-3.1,2.3-5.6,5.7-5.6c2,0,3.3,0.7,4.3,1.7l-1.5,1.8c-0.8-0.8-1.7-1.2-2.8-1.2   c-1.8,0-3.1,1.5-3.1,3.4l0,0c0,1.9,1.3,3.4,3.1,3.4c1.2,0,2-0.5,2.8-1.3l1.5,1.5c-1.1,1.2-2.4,1.9-4.4,1.9   C322,38.6,319.7,36.1,319.7,33z"/>
	<path class="st0" d="M330.6,33L330.6,33c0-3.1,2.4-5.6,5.8-5.6s5.7,2.5,5.7,5.6l0,0c0,3.1-2.4,5.6-5.8,5.6   C333,38.6,330.6,36.1,330.6,33z M339.6,33L339.6,33c0-1.9-1.4-3.4-3.3-3.4S333,31.1,333,33l0,0c0,1.9,1.4,3.4,3.3,3.4   C338.3,36.4,339.6,34.8,339.6,33z"/>
	<path class="st0" d="M344,27.5h5c1.4,0,2.4,0.4,3.2,1.1c0.6,0.6,0.9,1.5,0.9,2.5l0,0c0,1.8-0.9,2.9-2.3,3.4l2.6,3.9h-2.8l-2.3-3.5   h-1.9v3.5H344V27.5z M348.8,32.8c1.2,0,1.8-0.6,1.8-1.5l0,0c0-1-0.7-1.5-1.9-1.5h-2.4v3.1L348.8,32.8L348.8,32.8z"/>
	<path class="st0" d="M355,27.5h4.4c2.6,0,4.2,1.5,4.2,3.7l0,0c0,2.5-2,3.8-4.4,3.8h-1.8v3.3H355V27.5z M359.3,33   c1.2,0,1.9-0.7,1.9-1.6l0,0c0-1.1-0.7-1.6-1.9-1.6h-1.8v3.3L359.3,33L359.3,33z"/>
	<path class="st0" d="M364.4,36.8l1.4-1.7c1,0.8,2,1.3,3.2,1.3c1,0,1.6-0.4,1.6-1l0,0c0-0.6-0.4-0.9-2.2-1.4   c-2.2-0.6-3.6-1.2-3.6-3.3l0,0c0-2,1.6-3.3,3.8-3.3c1.6,0,2.9,0.5,4,1.4l-1.2,1.8c-1-0.7-1.9-1.1-2.8-1.1s-1.4,0.4-1.4,0.9l0,0   c0,0.7,0.5,0.9,2.3,1.4c2.2,0.6,3.4,1.4,3.4,3.3l0,0c0,2.2-1.6,3.4-4,3.4C367.3,38.5,365.7,38,364.4,36.8z"/>
</g>
<g>
	<path class="st0" d="M252.3,46.7h2.2l5.1,6.7v-6.7h2.4v10.8h-2l-5.2-6.9v6.9h-2.4V46.7H252.3z"/>
	<path class="st0" d="M268.1,46.6h2.2l4.6,10.9h-2.5l-1-2.4h-4.6l-1,2.4h-2.4L268.1,46.6z M270.6,53l-1.4-3.5l-1.4,3.5H270.6z"/>
	<path class="st0" d="M273.9,46.7h2.6l2.8,7.6l2.8-7.6h2.6l-4.4,10.9h-2.1L273.9,46.7z"/>
	<path class="st0" d="M289,53.3l-4.2-6.6h2.8l2.6,4.4l2.6-4.4h2.7l-4.2,6.5v4.3H289V53.3z"/>
</g>
<g>
	<path class="st0" d="M256,65.6h2.2l4.6,10.9h-2.5l-1-2.4h-4.6l-1,2.4h-2.4L256,65.6z M258.5,71.9l-1.4-3.5l-1.4,3.5H258.5z"/>
	<path class="st0" d="M264.4,65.6h2.4v10.8h-2.4V65.6z"/>
	<path class="st0" d="M269.3,65.6h5c1.4,0,2.4,0.4,3.2,1.1c0.6,0.6,0.9,1.5,0.9,2.5l0,0c0,1.8-0.9,2.8-2.3,3.4l2.6,3.9h-2.8   l-2.3-3.5h-1.9v3.5h-2.4L269.3,65.6L269.3,65.6z M274.1,70.9c1.2,0,1.8-0.6,1.8-1.5l0,0c0-1-0.7-1.5-1.9-1.5h-2.4v3H274.1z"/>
	<path class="st0" d="M284.7,65.6h8.3v2.2h-5.9v2.3h5.2v2.2h-5.2v4.2h-2.4V65.6z"/>
	<path class="st0" d="M294.2,71.1L294.2,71.1c0-3.1,2.4-5.6,5.8-5.6s5.7,2.5,5.7,5.6l0,0c0,3.1-2.4,5.6-5.8,5.6   C296.6,76.7,294.2,74.2,294.2,71.1z M303.2,71.1L303.2,71.1c0-1.9-1.4-3.4-3.3-3.4s-3.3,1.5-3.3,3.4l0,0c0,1.9,1.4,3.4,3.3,3.4   C301.9,74.5,303.2,72.9,303.2,71.1z"/>
	<path class="st0" d="M307.6,65.6h5c1.4,0,2.4,0.4,3.2,1.1c0.6,0.6,0.9,1.5,0.9,2.5l0,0c0,1.8-0.9,2.8-2.3,3.4l2.6,3.9h-2.8   l-2.3-3.5H310v3.5h-2.4V65.6z M312.4,70.9c1.2,0,1.8-0.6,1.8-1.5l0,0c0-1-0.7-1.5-1.9-1.5H310v3H312.4z"/>
	<path class="st0" d="M318.1,71.1L318.1,71.1c0-3.1,2.3-5.6,5.7-5.6c2,0,3.3,0.7,4.3,1.7l-1.5,1.8c-0.8-0.8-1.7-1.2-2.8-1.2   c-1.8,0-3.1,1.5-3.1,3.4l0,0c0,1.9,1.3,3.4,3.1,3.4c1.2,0,2-0.5,2.8-1.3l1.5,1.5c-1.1,1.2-2.4,1.9-4.4,1.9   C320.5,76.7,318.1,74.2,318.1,71.1z"/>
	<path class="st0" d="M329.8,65.6h8.2v2.1h-5.8v2.2h5.1V72h-5.1v2.3h5.9v2.1h-8.3L329.8,65.6L329.8,65.6z"/>
</g>
<g>
	<path class="st0" d="M252.2,109.2L252.2,109.2c0-3.1,2.3-5.6,5.7-5.6c2,0,3.3,0.7,4.3,1.7l-1.5,1.8c-0.8-0.8-1.7-1.2-2.8-1.2   c-1.8,0-3.1,1.5-3.1,3.4l0,0c0,1.9,1.3,3.4,3.1,3.4c1.2,0,2-0.5,2.8-1.3l1.5,1.5c-1.1,1.2-2.4,1.9-4.4,1.9   C254.6,114.8,252.2,112.3,252.2,109.2z"/>
	<path class="st0" d="M263.1,109.2L263.1,109.2c0-3.1,2.4-5.6,5.8-5.6s5.7,2.5,5.7,5.6l0,0c0,3.1-2.4,5.6-5.8,5.6   C265.5,114.8,263.1,112.3,263.1,109.2z M272.1,109.2L272.1,109.2c0-1.9-1.4-3.4-3.3-3.4s-3.3,1.5-3.3,3.4l0,0   c0,1.9,1.4,3.4,3.3,3.4C270.8,112.6,272.1,111.1,272.1,109.2z"/>
	<path class="st0" d="M279.5,103.7h2.2l4.6,10.9h-2.5l-1-2.4h-4.6l-1,2.4h-2.4L279.5,103.7z M282.1,110.1l-1.4-3.5l-1.4,3.5H282.1z"/>
	<path class="st0" d="M287,113l1.4-1.7c1,0.8,2,1.3,3.2,1.3c1,0,1.6-0.4,1.6-1l0,0c0-0.6-0.4-0.9-2.2-1.4c-2.2-0.6-3.6-1.2-3.6-3.3   l0,0c0-2,1.6-3.3,3.8-3.3c1.6,0,2.9,0.5,4,1.4l-1.2,1.8c-1-0.7-1.9-1.1-2.8-1.1s-1.4,0.4-1.4,0.9l0,0c0,0.7,0.5,0.9,2.3,1.4   c2.2,0.6,3.4,1.4,3.4,3.3l0,0c0,2.2-1.6,3.4-4,3.4C289.9,114.8,288.3,114.2,287,113z"/>
	<path class="st0" d="M299.7,106h-3.3v-2.2h9v2.2h-3.3v8.6h-2.4L299.7,106L299.7,106z"/>
	<path class="st0" d="M310.9,109.2L310.9,109.2c0-3.1,2.4-5.6,5.7-5.6c2,0,3.1,0.5,4.3,1.5l-1.5,1.8c-0.8-0.7-1.6-1.1-2.8-1.1   c-1.7,0-3.1,1.5-3.1,3.4l0,0c0,2,1.4,3.4,3.3,3.4c0.9,0,1.6-0.2,2.2-0.7v-1.5h-2.4v-2.1h4.7v4.7c-1.1,0.9-2.6,1.7-4.6,1.7   C313.3,114.8,310.9,112.4,310.9,109.2z"/>
	<path class="st0" d="M323.2,110v-6.2h2.4v6.1c0,1.8,0.9,2.7,2.3,2.7s2.3-0.9,2.3-2.6v-6.2h2.4v6.1c0,3.3-1.8,4.9-4.8,4.9   C324.9,114.8,323.2,113.2,323.2,110z"/>
	<path class="st0" d="M338.2,103.7h2.2l4.6,10.9h-2.5l-1-2.4h-4.6l-1,2.4h-2.4L338.2,103.7z M340.7,110.1l-1.4-3.5l-1.4,3.5H340.7z"/>
	<path class="st0" d="M346.5,103.8h5c1.4,0,2.4,0.4,3.2,1.1c0.6,0.6,0.9,1.5,0.9,2.5l0,0c0,1.8-0.9,2.8-2.3,3.4l2.6,3.9H353   l-2.3-3.5h-1.9v3.5h-2.4L346.5,103.8L346.5,103.8z M351.3,109c1.2,0,1.8-0.6,1.8-1.5l0,0c0-1-0.7-1.5-1.9-1.5h-2.4v3.1L351.3,109   L351.3,109z"/>
	<path class="st0" d="M357.4,103.8h4.2c3.4,0,5.8,2.3,5.8,5.4l0,0c0,3.1-2.4,5.4-5.8,5.4h-4.2V103.8z M359.8,105.9v6.5h1.8   c2,0,3.3-1.3,3.3-3.2l0,0c0-1.9-1.3-3.3-3.3-3.3H359.8z"/>
</g>
<g>
	<path class="st0" d="M251.6,94l1.4-1.7c1,0.8,2,1.3,3.2,1.3c1,0,1.6-0.4,1.6-1l0,0c0-0.6-0.4-0.9-2.2-1.4c-2.2-0.6-3.6-1.2-3.6-3.3   l0,0c0-2,1.6-3.3,3.8-3.3c1.6,0,2.9,0.5,4,1.4l-1.2,1.8c-1-0.7-1.9-1.1-2.8-1.1s-1.4,0.4-1.4,0.9l0,0c0,0.7,0.5,0.9,2.3,1.4   c2.2,0.6,3.4,1.4,3.4,3.3l0,0c0,2.2-1.6,3.4-4,3.4C254.5,95.8,252.9,95.2,251.6,94z"/>
	<path class="st0" d="M262,84.8h4.4c2.6,0,4.2,1.5,4.2,3.7l0,0c0,2.5-2,3.8-4.4,3.8h-1.8v3.3H262V84.8z M266.3,90.2   c1.2,0,1.9-0.7,1.9-1.6l0,0c0-1.1-0.7-1.6-1.9-1.6h-1.8v3.3h1.8V90.2z"/>
	<path class="st0" d="M274.8,84.7h2.2l4.6,10.9h-2.5l-1-2.4h-4.6l-1,2.4h-2.4L274.8,84.7z M277.3,91.1l-1.4-3.5l-1.4,3.5H277.3z"/>
	<path class="st0" d="M281.9,90.2L281.9,90.2c0-3.1,2.3-5.6,5.7-5.6c2,0,3.3,0.7,4.3,1.7l-1.5,1.8c-0.8-0.8-1.7-1.2-2.8-1.2   c-1.8,0-3.1,1.5-3.1,3.4l0,0c0,1.9,1.3,3.4,3.1,3.4c1.2,0,2-0.5,2.8-1.3l1.5,1.5c-1.1,1.2-2.4,1.9-4.4,1.9   C284.3,95.8,281.9,93.3,281.9,90.2z"/>
	<path class="st0" d="M293.6,84.8h8.2v2.1H296v2.2h5.1v2.1H296v2.3h5.9v2.1h-8.3V84.8z"/>
	<path class="st0" d="M308.2,84.8h8.3V87h-5.9v2.3h5.2v2.2h-5.2v4.2h-2.4V84.8z"/>
	<path class="st0" d="M317.7,90.2L317.7,90.2c0-3.1,2.4-5.6,5.8-5.6s5.7,2.5,5.7,5.6l0,0c0,3.1-2.4,5.6-5.8,5.6   C320.1,95.8,317.7,93.3,317.7,90.2z M326.7,90.2L326.7,90.2c0-1.9-1.4-3.4-3.3-3.4s-3.3,1.5-3.3,3.4l0,0c0,1.9,1.4,3.4,3.3,3.4   C325.4,93.6,326.7,92.1,326.7,90.2z"/>
	<path class="st0" d="M331.1,84.8h5c1.4,0,2.4,0.4,3.2,1.1c0.6,0.6,0.9,1.5,0.9,2.5l0,0c0,1.8-0.9,2.8-2.3,3.4l2.6,3.9h-2.8   l-2.3-3.5h-1.9v3.5h-2.4L331.1,84.8L331.1,84.8z M335.9,90c1.2,0,1.8-0.6,1.8-1.5l0,0c0-1-0.7-1.5-1.9-1.5h-2.4v3.1L335.9,90   L335.9,90z"/>
	<path class="st0" d="M341.6,90.2L341.6,90.2c0-3.1,2.3-5.6,5.7-5.6c2,0,3.3,0.7,4.3,1.7l-1.5,1.8c-0.8-0.8-1.7-1.2-2.8-1.2   c-1.8,0-3.1,1.5-3.1,3.4l0,0c0,1.9,1.3,3.4,3.1,3.4c1.2,0,2-0.5,2.8-1.3l1.5,1.5c-1.1,1.2-2.4,1.9-4.4,1.9   C344,95.8,341.6,93.3,341.6,90.2z"/>
	<path class="st0" d="M353.3,84.8h8.2v2.1h-5.8v2.2h5.1v2.1h-5.1v2.3h5.9v2.1h-8.3L353.3,84.8L353.3,84.8z"/>
</g>
<g>
	<path class="st0" d="M251.4,122.9h2.6l2.8,7.6l2.8-7.6h2.6l-4.4,10.9h-2.1L251.4,122.9z"/>
	<path class="st0" d="M263.7,122.9h8.2v2.1h-5.8v2.2h5.1v2.1h-5.1v2.3h5.9v2.1h-8.3L263.7,122.9L263.7,122.9z"/>
	<path class="st0" d="M276.4,125.1h-3.3v-2.2h9v2.2h-3.3v8.6h-2.4L276.4,125.1L276.4,125.1z"/>
	<path class="st0" d="M283.7,122.9h8.2v2.1h-5.8v2.2h5.1v2.1h-5.1v2.3h5.9v2.1h-8.3L283.7,122.9L283.7,122.9z"/>
	<path class="st0" d="M293.9,122.9h5c1.4,0,2.4,0.4,3.2,1.1c0.6,0.6,0.9,1.5,0.9,2.5l0,0c0,1.8-0.9,2.8-2.3,3.4l2.6,3.9h-2.8   l-2.3-3.5h-1.9v3.5h-2.4L293.9,122.9L293.9,122.9z M298.7,128.1c1.2,0,1.8-0.6,1.8-1.5l0,0c0-1-0.7-1.5-1.9-1.5h-2.4v3.1h2.5V128.1   z"/>
	<path class="st0" d="M308.6,122.8h2.2l4.6,10.9h-2.5l-1-2.4h-4.6l-1,2.4h-2.4L308.6,122.8z M311.1,129.2l-1.4-3.5l-1.4,3.5H311.1z"/>
	<path class="st0" d="M316.9,122.9h2.2l5.1,6.7v-6.7h2.4v10.8h-2l-5.2-6.9v6.9H317v-10.8H316.9z"/>
	<path class="st0" d="M328.1,132.1l1.4-1.7c1,0.8,2,1.3,3.2,1.3c1,0,1.6-0.4,1.6-1l0,0c0-0.6-0.4-0.9-2.2-1.4   c-2.2-0.6-3.6-1.2-3.6-3.3l0,0c0-2,1.6-3.3,3.8-3.3c1.6,0,2.9,0.5,4,1.4l-1.2,1.8c-1-0.7-1.9-1.1-2.8-1.1s-1.4,0.4-1.4,0.9l0,0   c0,0.7,0.5,0.9,2.3,1.4c2.2,0.6,3.4,1.4,3.4,3.3l0,0c0,2.2-1.6,3.4-4,3.4C331.1,133.9,329.4,133.3,328.1,132.1z"/>
</g>
</svg>